<svg id="Layer_1" data-name="Layer 1" xmlns="http://www.w3.org/2000/svg" viewBox="0 0 456.49 373"><defs><style>.cls-1{fill-rule:evenodd; fill:#fff;}</style></defs><polygon class="cls-1" points="360.65 373 312.73 373 264.81 373 288.77 331.5 312.73 290 312.8 290 336.73 248.56 360.69 207.06 384.65 248.56 408.57 290 408.57 290 408.57 290 408.57 290 408.61 290.06 432.53 331.5 456.5 373 408.57 373 360.65 373"/><polygon class="cls-1" points="228.03 0 180.11 0 132.19 0 156.15 41.5 180.11 83 180.18 83 204.1 124.44 228.06 165.94 252.02 124.44 275.95 83 275.95 83 275.95 83 275.95 83 275.98 82.94 299.91 41.5 323.87 0 275.95 0 228.03 0"/><polygon class="cls-1" points="53.8 279 27.24 325 27.14 325 0 372 0.11 372 54.32 372 66.65 372 107.56 372 99.4 357.85 107.56 372 134.12 326 134.3 326 161.44 279 161.44 279 161.44 279 188 233 188.1 233 215.24 186 215.08 186 194.65 150.61 188.5 139.95 187.95 139 161.43 93.06 134.9 139 134.85 139 107.72 186 107.6 186 107.6 186 81.05 232 80.94 232 53.8 279 53.8 279"/><polygon class="cls-1" points="293.69 93.03 267.15 139 267.01 139 239.88 186 239.87 186 239.87 186 213.31 232 213.21 232 186.07 279 186.07 279 159.51 325 159.4 325 132.27 372 132.38 372 186.59 372 198.92 372 239.83 372 231.66 357.85 239.83 372 266.39 326 266.57 326 293.71 279 293.71 279 293.71 279 320.27 233 320.39 233 347.55 185.97 374.08 140 373.93 140 401.06 93 401.01 93 401.01 92.94 427.54 47 427.59 47 454.72 0 455.06 0 400.85 0 388.51 0 347.6 0 347.6 0 347.6 0 321.05 46 320.85 46 293.69 93.03"/></svg>