<?xml version="1.0" standalone="no"?>
<!DOCTYPE svg PUBLIC "-//W3C//DTD SVG 20010904//EN"
 "http://www.w3.org/TR/2001/REC-SVG-20010904/DTD/svg10.dtd">
<svg version="1.0" xmlns="http://www.w3.org/2000/svg"
 width="912.000000pt" height="912.000000pt" viewBox="0 0 912.000000 912.000000"
 preserveAspectRatio="xMidYMid meet">
<metadata>
Created by potrace 1.14, written by Peter Selinger 2001-2017
</metadata>
<g transform="translate(0.000000,912.000000) scale(0.100000,-0.100000)"
fill="#000000" stroke="none">
<path d="M2660 8248 c29 -49 112 -195 135 -236 11 -20 23 -39 26 -42 3 -3 12
-20 20 -37 8 -18 17 -33 21 -33 5 0 8 -4 8 -9 0 -8 72 -137 100 -181 6 -8 13
-22 17 -30 3 -8 14 -26 23 -40 10 -14 28 -45 42 -70 14 -25 35 -61 47 -80 11
-19 24 -42 28 -50 4 -8 33 -58 64 -112 31 -53 70 -120 87 -150 16 -29 62 -109
102 -178 40 -69 80 -138 90 -155 9 -16 32 -56 51 -88 19 -33 45 -79 59 -103
79 -139 104 -181 118 -196 8 -10 11 -18 7 -18 -4 0 -1 -8 7 -17 22 -27 98
-160 98 -172 0 -6 3 -11 8 -11 4 0 12 -10 17 -23 21 -44 60 -112 73 -125 6 -7
12 -19 12 -27 0 -7 3 -15 8 -17 9 -4 51 -76 59 -100 3 -10 9 -18 14 -18 5 0 9
-4 9 -9 0 -5 32 -64 71 -132 40 -68 114 -198 167 -289 52 -91 117 -202 143
-248 27 -45 49 -85 49 -87 0 -3 15 -28 34 -57 18 -29 44 -74 58 -100 l25 -48
24 50 c13 28 27 50 31 50 5 0 8 4 8 9 0 12 83 155 92 159 5 2 8 8 8 13 0 9 87
164 129 229 8 14 16 27 16 30 0 3 8 16 17 30 19 30 187 322 231 400 16 30 38
67 49 82 10 14 18 28 18 31 0 2 30 56 66 118 37 63 76 130 86 149 57 99 73
126 83 132 5 4 6 8 1 8 -5 0 -4 6 2 13 9 10 215 363 290 497 14 25 35 61 47
80 12 19 25 42 29 50 4 8 12 24 19 35 7 11 23 38 35 60 12 22 33 58 47 80 14
22 30 51 37 65 7 14 27 49 45 78 18 29 33 56 33 61 0 5 7 14 15 21 8 7 12 16
9 21 -3 5 -1 9 4 9 5 0 12 8 16 18 3 9 10 24 16 32 15 23 130 221 130 225 0 2
13 25 29 52 78 128 241 415 241 423 0 7 -693 10 -1910 10 l-1910 0 20 -32z"/>
<path d="M6840 8098 c-58 -101 -108 -184 -112 -186 -5 -2 -8 -8 -8 -13 0 -10
-245 -437 -296 -516 -19 -29 -34 -55 -34 -58 0 -2 -15 -28 -33 -57 -19 -29
-37 -60 -41 -68 -4 -8 -12 -24 -19 -35 -56 -93 -107 -186 -107 -195 0 -5 -4
-10 -9 -10 -5 0 -14 -15 -22 -32 -7 -18 -16 -35 -19 -38 -4 -3 -18 -25 -32
-50 -14 -25 -51 -90 -83 -145 -32 -55 -125 -216 -207 -358 -81 -143 -158 -273
-170 -290 -13 -18 -22 -33 -20 -35 2 -1 -13 -31 -33 -65 -20 -34 -40 -69 -45
-77 -5 -8 -27 -46 -49 -84 -23 -38 -41 -73 -41 -77 0 -5 -4 -9 -8 -9 -5 0 -14
-16 -22 -35 -8 -19 -17 -35 -22 -35 -4 0 -8 -4 -8 -9 0 -5 -34 -67 -76 -137
-69 -118 -102 -174 -141 -244 -8 -14 -28 -47 -44 -75 -17 -27 -33 -58 -36 -67
-3 -10 -9 -18 -14 -18 -5 0 -9 -6 -9 -14 0 -8 -6 -21 -13 -28 -6 -7 -25 -38
-41 -68 -16 -30 -35 -62 -42 -71 -8 -8 -14 -19 -14 -23 0 -4 -31 -60 -69 -124
-38 -64 -78 -133 -88 -152 -28 -48 -82 -142 -92 -160 -16 -26 -193 -332 -244
-420 -26 -47 -52 -92 -57 -100 -44 -71 -110 -191 -110 -199 0 -5 -4 -11 -8
-13 -4 -1 -18 -21 -31 -43 -44 -75 -173 -299 -194 -334 -99 -176 -109 -193
-117 -201 -3 -3 -11 -16 -18 -30 -6 -14 -30 -56 -53 -95 -22 -38 -43 -78 -46
-87 -3 -10 -9 -18 -13 -18 -4 0 -10 -8 -13 -17 -4 -10 -17 -36 -31 -58 -14
-22 -34 -56 -44 -75 -36 -66 -76 -135 -81 -140 -3 -3 -16 -23 -28 -45 -11 -22
-30 -56 -41 -75 -11 -19 -50 -87 -86 -150 -37 -63 -77 -133 -91 -155 -13 -22
-32 -56 -41 -75 -10 -19 -23 -42 -29 -50 -7 -8 -24 -35 -37 -60 -35 -62 -497
-859 -516 -890 -9 -14 -26 -43 -38 -65 -11 -22 -31 -56 -42 -75 -31 -51 -62
-108 -62 -115 0 -3 481 -5 1070 -5 l1069 0 51 85 c27 47 50 90 50 95 0 6 4 10
10 10 5 0 12 11 16 25 3 14 10 25 14 25 4 0 10 8 13 18 4 9 17 35 29 57 13 22
43 74 67 115 24 41 54 92 67 113 13 20 21 37 17 37 -5 0 -3 4 3 8 6 4 28 39
49 77 21 39 41 72 44 75 4 3 13 19 21 35 8 17 17 32 20 35 3 3 12 19 20 35 15
31 53 92 68 110 4 6 15 25 22 42 8 18 18 33 22 33 5 0 8 4 8 10 0 5 27 55 60
111 33 55 60 102 60 104 0 1 37 65 81 141 45 77 95 164 112 194 17 30 48 83
69 118 21 34 38 66 38 71 0 5 3 11 8 13 4 2 15 19 26 38 57 106 80 145 88 148
4 2 8 8 8 13 0 5 41 79 90 164 50 85 90 159 90 165 0 5 5 10 10 10 6 0 10 7
10 15 0 8 5 15 12 15 6 0 8 3 5 6 -4 4 2 19 12 33 10 14 29 46 43 71 66 118
164 286 174 297 6 6 17 25 24 42 7 17 17 31 23 31 6 0 8 3 4 6 -3 3 10 30 29
59 19 30 34 56 34 58 0 3 18 35 40 71 22 36 40 68 40 72 0 3 13 25 30 48 16
24 26 46 23 50 -4 3 -2 6 4 6 6 0 13 8 17 18 5 16 16 35 62 112 63 105 108
186 106 193 -1 4 2 7 7 7 5 0 14 14 21 30 7 16 16 30 21 30 5 0 8 3 7 8 -2 8
31 74 42 82 3 3 17 25 29 50 12 25 38 70 56 100 19 30 34 61 35 68 0 6 3 12 8
12 4 0 18 21 31 48 14 26 32 58 42 72 9 14 27 45 41 70 14 25 43 74 63 110 21
36 48 83 59 105 11 22 26 46 33 53 7 7 13 20 13 28 0 8 5 14 10 14 6 0 10 4
10 9 0 5 22 47 48 93 44 76 114 198 165 287 11 20 31 56 45 81 13 25 31 53 40
63 8 9 12 17 8 17 -4 0 1 12 12 28 15 22 152 256 270 462 36 63 166 290 200
348 18 31 38 68 45 82 6 14 14 27 17 30 3 3 48 79 99 170 52 91 100 172 108
181 7 9 10 19 6 22 -3 4 -1 7 5 7 6 0 14 10 18 23 3 12 19 41 35 65 16 24 29
45 29 48 0 3 8 18 19 32 10 15 31 50 45 77 15 28 31 57 36 65 10 15 89 150
120 205 9 17 29 50 44 75 15 25 33 59 42 75 8 17 23 44 34 60 11 17 23 37 27
45 4 8 35 63 70 122 35 59 63 111 63 117 0 6 4 11 8 11 6 0 33 45 60 103 2 4
-477 7 -1065 7 l-1069 0 -104 -182z"/>
<path d="M3185 6353 c-22 -37 -44 -77 -50 -88 -6 -11 -79 -137 -162 -280 -83
-143 -158 -273 -167 -290 -9 -16 -25 -43 -36 -60 -10 -16 -27 -46 -37 -65 -39
-71 -76 -135 -87 -150 -6 -8 -22 -35 -35 -60 -13 -25 -29 -52 -35 -60 -7 -8
-18 -28 -26 -45 -8 -16 -18 -32 -21 -35 -4 -3 -18 -27 -33 -55 -14 -27 -39
-72 -56 -100 -16 -27 -43 -75 -60 -105 -17 -30 -40 -71 -52 -90 -11 -19 -31
-55 -44 -79 -13 -24 -28 -49 -33 -55 -8 -11 -37 -62 -77 -136 -11 -19 -26 -40
-34 -47 -8 -7 -11 -13 -7 -13 5 0 0 -12 -11 -27 -15 -23 -182 -308 -273 -469
-10 -19 -28 -49 -38 -68 -11 -19 -31 -53 -45 -75 -15 -22 -26 -43 -26 -47 0
-3 -13 -25 -28 -48 -16 -23 -35 -56 -43 -74 -7 -18 -17 -32 -21 -32 -5 0 -8
-5 -8 -10 0 -6 -11 -27 -24 -48 -23 -36 -165 -280 -195 -335 -9 -16 -21 -36
-26 -45 -9 -15 -37 -63 -122 -212 -14 -25 -45 -79 -70 -120 -24 -41 -43 -79
-43 -84 1 -5 -3 -12 -8 -15 -5 -3 -19 -22 -30 -41 -10 -19 -43 -75 -72 -125
-29 -49 -64 -110 -78 -135 -14 -25 -64 -112 -112 -195 -48 -82 -99 -170 -114
-195 -114 -199 -164 -287 -184 -318 -12 -20 -25 -44 -29 -52 -3 -8 -12 -22
-18 -30 -7 -8 -30 -46 -50 -85 -21 -38 -44 -77 -51 -86 -8 -8 -14 -18 -14 -22
0 -4 -20 -41 -45 -83 -25 -41 -45 -79 -45 -84 0 -4 -7 -13 -15 -20 -8 -7 -12
-16 -9 -21 3 -5 1 -9 -3 -9 -5 0 -17 -17 -28 -37 -11 -21 -29 -54 -41 -73 -54
-87 -132 -226 -130 -231 0 -4 -6 -15 -14 -25 -9 -11 -25 -36 -35 -56 -11 -21
-23 -38 -27 -38 -5 0 -8 -4 -8 -10 0 -7 365 -10 1074 -10 l1074 0 22 38 c12
20 77 131 143 247 66 116 123 212 126 215 3 3 19 31 36 63 16 31 33 57 37 57
4 0 8 7 8 16 0 9 8 28 19 42 10 15 27 43 37 62 11 19 65 112 122 206 56 95
102 175 102 178 0 4 5 12 10 19 6 7 46 73 88 147 112 194 467 809 489 847 91
158 113 197 113 204 0 5 4 9 8 9 4 0 15 15 23 33 19 41 206 363 230 399 11 14
19 31 19 37 0 6 5 11 10 11 6 0 10 5 10 11 0 6 29 60 65 120 36 61 65 115 65
120 0 5 4 9 8 9 4 0 13 12 19 28 7 15 17 34 22 42 15 21 247 423 287 495 l33
61 -45 73 c-24 40 -44 75 -44 77 0 2 -25 44 -55 95 -30 50 -55 93 -55 95 0 2
-25 44 -55 95 -30 50 -55 93 -55 95 0 9 -75 130 -84 136 -6 4 -8 8 -4 8 4 0
-9 28 -30 63 -21 34 -71 121 -112 192 -41 72 -76 132 -79 135 -3 3 -17 28 -31
55 -13 28 -27 52 -30 55 -3 3 -73 122 -155 265 -81 143 -155 268 -163 278 -8
9 -12 17 -8 17 4 0 -4 15 -18 33 -15 19 -26 38 -26 44 0 5 -6 17 -13 26 -11
16 -17 10 -52 -50z"/>
<path d="M7145 4038 c-33 -56 -64 -110 -70 -119 -5 -9 -23 -40 -39 -70 -16
-30 -44 -78 -63 -108 -19 -30 -39 -63 -44 -75 -5 -12 -20 -39 -34 -61 -14 -22
-30 -49 -35 -60 -6 -11 -14 -27 -20 -35 -16 -26 -86 -145 -93 -160 -4 -8 -17
-32 -30 -52 -12 -20 -41 -70 -63 -110 -61 -108 -172 -301 -184 -318 -5 -8 -31
-53 -58 -100 -27 -47 -58 -101 -69 -121 -12 -20 -27 -47 -35 -60 -7 -13 -19
-32 -27 -41 -8 -10 -10 -18 -5 -18 5 0 4 -4 -2 -8 -13 -8 -124 -199 -124 -213
0 -5 -4 -9 -9 -9 -5 0 -11 -8 -14 -17 -4 -10 -18 -38 -33 -63 -15 -25 -36 -61
-47 -80 -11 -19 -28 -48 -38 -65 -11 -16 -22 -36 -25 -43 -4 -8 -45 -80 -92
-160 -46 -81 -92 -160 -102 -177 -9 -16 -29 -50 -44 -75 -15 -25 -29 -53 -33
-62 -3 -10 -9 -18 -14 -18 -5 0 -9 -4 -9 -10 0 -8 -72 -138 -100 -180 -6 -8
-13 -22 -17 -30 -3 -8 -15 -26 -25 -39 -10 -13 -15 -27 -12 -32 3 -5 1 -9 -5
-9 -5 0 -13 -10 -17 -22 -4 -13 -10 -25 -14 -28 -6 -5 -33 -52 -86 -150 -11
-19 -22 -36 -26 -38 -5 -2 -8 -8 -8 -14 0 -5 -8 -22 -18 -36 -10 -15 -31 -48
-46 -74 l-27 -48 1915 0 1916 0 -20 33 c-11 17 -23 38 -27 46 -3 8 -35 63 -69
122 -35 60 -74 128 -87 151 -13 24 -56 98 -96 165 -39 68 -71 127 -71 133 0 5
-4 10 -10 10 -5 0 -10 5 -10 10 0 6 -11 27 -23 48 -21 33 -48 79 -94 162 -8
14 -23 39 -33 55 -10 17 -25 41 -33 55 -7 14 -41 73 -75 132 -34 59 -62 112
-62 117 0 6 -4 11 -10 11 -5 0 -10 4 -10 9 0 5 -20 42 -45 83 -25 42 -45 80
-45 86 0 6 -4 12 -8 14 -4 2 -25 35 -47 73 -21 39 -57 102 -80 140 -23 39 -54
90 -67 115 -14 25 -57 99 -95 165 -96 165 -214 370 -286 495 -33 58 -67 116
-76 130 -8 14 -16 27 -16 30 0 3 -12 23 -26 45 -27 42 -84 144 -103 182 -6 13
-14 23 -18 23 -5 0 -8 4 -8 9 0 10 -182 328 -199 347 -5 7 -8 14 -5 17 2 2 -2
10 -11 17 -8 7 -15 18 -15 24 0 6 -8 21 -18 34 l-18 23 -59 -103z"/>
</g>
</svg>
